<svg width="243" height="53" viewBox="0 0 243 53" fill="none"
    xmlns="http://www.w3.org/2000/svg">
    <rect x="120" y="23" width="7" height="7" rx="3.5" fill="#ECDFCB" fill-opacity="0.6"/>
    <rect x="120" y="23" width="7" height="7" rx="3.5" fill="#ECDFCB" fill-opacity="0.6"/>
    <rect x="120" width="7" height="7" rx="3.5" fill="#ECDFCB" fill-opacity="0.6"/>
    <rect x="120" y="46" width="7" height="7" rx="3.5" fill="#ECDFCB" fill-opacity="0.6"/>
    <rect x="100" y="23" width="7" height="7" rx="3.5" fill="#ECDFCB" fill-opacity="0.6"/>
    <rect x="100" y="23" width="7" height="7" rx="3.5" fill="#ECDFCB" fill-opacity="0.6"/>
    <rect x="100" width="7" height="7" rx="3.5" fill="#ECDFCB" fill-opacity="0.6"/>
    <rect x="100" y="46" width="7" height="7" rx="3.5" fill="#ECDFCB" fill-opacity="0.6"/>
    <rect x="80" y="23" width="6" height="6" rx="3" fill="#ECDFCB" fill-opacity="0.6"/>
    <rect x="80" y="23" width="6" height="6" rx="3" fill="#ECDFCB" fill-opacity="0.6"/>
    <rect x="80" width="6" height="6" rx="3" fill="#ECDFCB" fill-opacity="0.6"/>
    <rect x="80" y="46" width="6" height="6" rx="3" fill="#ECDFCB" fill-opacity="0.6"/>
    <rect x="60" y="24" width="5" height="5" rx="2.5" fill="#ECDFCB" fill-opacity="0.6"/>
    <rect x="60" y="24" width="5" height="5" rx="2.5" fill="#ECDFCB" fill-opacity="0.6"/>
    <rect x="60" y="1" width="5" height="5" rx="2.5" fill="#ECDFCB" fill-opacity="0.6"/>
    <rect x="60" y="47" width="5" height="5" rx="2.5" fill="#ECDFCB" fill-opacity="0.6"/>
    <rect x="40" y="24" width="5" height="5" rx="2.5" fill="#ECDFCB" fill-opacity="0.6"/>
    <rect x="40" y="24" width="5" height="5" rx="2.5" fill="#ECDFCB" fill-opacity="0.6"/>
    <rect x="40" y="1" width="5" height="5" rx="2.5" fill="#ECDFCB" fill-opacity="0.6"/>
    <rect x="40" y="47" width="5" height="5" rx="2.5" fill="#ECDFCB" fill-opacity="0.6"/>
    <rect x="20" y="24" width="5" height="5" rx="2.5" fill="#ECDFCB" fill-opacity="0.6"/>
    <rect x="20" y="24" width="5" height="5" rx="2.5" fill="#ECDFCB" fill-opacity="0.6"/>
    <rect x="20" y="1" width="5" height="5" rx="2.5" fill="#ECDFCB" fill-opacity="0.6"/>
    <rect x="20" y="47" width="5" height="5" rx="2.5" fill="#ECDFCB" fill-opacity="0.6"/>
    <rect y="24" width="4" height="4" rx="2" fill="#ECDFCB" fill-opacity="0.6"/>
    <rect y="24" width="4" height="4" rx="2" fill="#ECDFCB" fill-opacity="0.6"/>
    <rect y="1" width="4" height="4" rx="2" fill="#ECDFCB" fill-opacity="0.6"/>
    <rect y="47" width="4" height="4" rx="2" fill="#ECDFCB" fill-opacity="0.6"/>
    <rect x="139" y="24" width="5" height="5" rx="2.5" fill="#ECDFCB" fill-opacity="0.6"/>
    <rect x="139" y="24" width="5" height="5" rx="2.5" fill="#ECDFCB" fill-opacity="0.6"/>
    <rect x="139" y="1" width="5" height="5" rx="2.5" fill="#ECDFCB" fill-opacity="0.6"/>
    <rect x="139" y="47" width="5" height="5" rx="2.5" fill="#ECDFCB" fill-opacity="0.6"/>
    <rect x="159" y="24" width="5" height="5" rx="2.5" fill="#ECDFCB" fill-opacity="0.6"/>
    <rect x="159" y="24" width="5" height="5" rx="2.5" fill="#ECDFCB" fill-opacity="0.6"/>
    <rect x="159" y="1" width="5" height="5" rx="2.5" fill="#ECDFCB" fill-opacity="0.6"/>
    <rect x="159" y="47" width="5" height="5" rx="2.5" fill="#ECDFCB" fill-opacity="0.6"/>
    <rect x="179" y="24" width="5" height="5" rx="2.5" fill="#ECDFCB" fill-opacity="0.6"/>
    <rect x="179" y="24" width="5" height="5" rx="2.5" fill="#ECDFCB" fill-opacity="0.6"/>
    <rect x="179" y="1" width="5" height="5" rx="2.5" fill="#ECDFCB" fill-opacity="0.6"/>
    <rect x="179" y="47" width="5" height="5" rx="2.5" fill="#ECDFCB" fill-opacity="0.6"/>
    <rect x="199" y="24" width="5" height="5" rx="2.5" fill="#ECDFCB" fill-opacity="0.6"/>
    <rect x="199" y="24" width="5" height="5" rx="2.5" fill="#ECDFCB" fill-opacity="0.6"/>
    <rect x="199" y="1" width="5" height="5" rx="2.5" fill="#ECDFCB" fill-opacity="0.6"/>
    <rect x="199" y="47" width="5" height="5" rx="2.5" fill="#ECDFCB" fill-opacity="0.6"/>
    <rect x="219" y="24" width="5" height="5" rx="2.5" fill="#ECDFCB" fill-opacity="0.6"/>
    <rect x="219" y="24" width="5" height="5" rx="2.5" fill="#ECDFCB" fill-opacity="0.6"/>
    <rect x="219" y="1" width="5" height="5" rx="2.5" fill="#ECDFCB" fill-opacity="0.6"/>
    <rect x="219" y="47" width="5" height="5" rx="2.5" fill="#ECDFCB" fill-opacity="0.6"/>
    <rect x="239" y="24" width="4" height="4" rx="2" fill="#ECDFCB" fill-opacity="0.6"/>
    <rect x="239" y="24" width="4" height="4" rx="2" fill="#ECDFCB" fill-opacity="0.6"/>
    <rect x="239" y="1" width="4" height="4" rx="2" fill="#ECDFCB" fill-opacity="0.6"/>
    <rect x="239" y="47" width="4" height="4" rx="2" fill="#ECDFCB" fill-opacity="0.6"/>
</svg>
